<?xml version="1.0" encoding="utf-8"?>
<!-- Generator: Adobe Illustrator 23.0.1, SVG Export Plug-In . SVG Version: 6.00 Build 0)  -->
<svg version="1.1" id="Layer_1" xmlns="http://www.w3.org/2000/svg" xmlns:xlink="http://www.w3.org/1999/xlink" x="0px" y="0px"
	 viewBox="0 0 1000 1000" style="enable-background:new 0 0 1000 1000;" xml:space="preserve">
<style type="text/css">
	.st0{fill:#FFFFFF;}
	.st1{fill:#F2F2F2;}
	.st2{font-family:'CourierNewPSMT';}
	.st3{font-size:70.14px;}
	.st4{letter-spacing:3;}
</style>
<title>logo</title>
<path class="st0" d="M611.2,401.6c36.2,0,62.6,16.7,76.1,46.6H726c-18.5-48-61.1-75-114.8-75c-46.4,0-86.1,23.5-107.3,61.4
	c-21.2-37.8-60.9-61.4-107.3-61.4c-53.7,0-96.3,27-114.8,75h38.8c13.5-29.9,39.8-46.6,76.1-46.6c34.8,0,63.6,16.9,78.9,46.4h56.8
	C547.6,418.5,576.4,401.6,611.2,401.6z"/>
<path class="st0" d="M611.2,598.2c-34.6,0-63.4-16.8-78.7-45.9h-57.1c-15.3,29.1-44.1,45.9-78.7,45.9c-36.3,0-62.6-16.7-76.1-46.2
	h-38.7c18.5,47.6,61.1,74.3,114.8,74.3c46.4,0,86.1-23.2,107.3-60.9c21.2,37.6,60.9,60.9,107.3,60.9c53.7,0,96.3-26.7,114.8-74.3
	h-38.7C673.7,581.5,647.4,598.2,611.2,598.2z"/>
<path class="st1" d="M305.7,486.6V485c0-0.4,0.1-0.9,0.3-1.2c0.5-0.5,1.2-0.5,1.7-0.1c0,0,0,0,0.1,0.1c0.3,0.4,0.4,0.8,0.3,1.2v6.7
	c0,0.4-0.1,0.9-0.3,1.3c-0.2,0.2-0.5,0.4-0.9,0.4c-0.3,0-0.6-0.1-0.8-0.3c-0.3-0.3-0.4-0.7-0.4-1.1c-0.2-1.7-1.1-3.3-2.6-4.3
	c-2.2-1.7-4.8-2.6-7.6-2.5c-1.8,0-3.6,0.4-5.2,1.2c-1.1,0.5-2.1,1.3-2.9,2.2c-1.3,1.5-2.3,3.2-3,5c-0.6,1.4-0.8,3-0.8,4.5v4.2
	c0,3.5,1.4,6.9,3.9,9.4c2.3,2.5,5.6,4,9.1,4c1.9,0,3.8-0.4,5.5-1.3c1.8-1.1,3.4-2.4,4.7-4.1c0.3-0.4,0.7-0.6,1.1-0.6
	c0.3,0,0.6,0.1,0.8,0.3c0.2,0.2,0.3,0.5,0.3,0.8c-0.2,0.8-0.6,1.5-1.2,2c-1.5,1.7-3.3,3.1-5.3,4c-1.9,0.9-3.9,1.3-6,1.3
	c-1.8,0-3.6-0.4-5.3-1c-1.2-0.4-2.4-1-3.4-1.8c-1.2-1-2.3-2.2-3.3-3.5c-1.1-1.3-2.1-2.9-2.7-4.5c-0.5-1.5-0.7-3-0.7-4.6v-4.9
	c0-2.5,0.7-5,1.9-7.3c1.2-2.4,3-4.3,5.2-5.7c2.2-1.3,4.6-2,7.2-2C299.2,482.6,302.9,484,305.7,486.6z"/>
<path class="st1" d="M348,500.2c0,3.1-0.6,6.1-2,8.9c-1.2,2.6-3,4.8-5.4,6.4c-2.2,1.5-4.7,2.3-7.4,2.3c-4,0-7.8-1.8-10.3-4.9
	c-2.9-3.3-4.4-7.6-4.4-12.7c0-5.1,1.5-9.4,4.4-12.7c2.5-3.1,6.3-4.9,10.2-4.9c2.6,0,5.2,0.8,7.3,2.3c2.3,1.6,4.2,3.8,5.4,6.4
	C347.3,494.1,348,497.1,348,500.2z M345.6,500.2c0-3.8-1.2-7.5-3.4-10.5c-2-3-5.3-4.7-8.8-4.7c-3.4,0-6.7,1.7-8.7,4.5
	c-2.4,3.1-3.7,6.9-3.6,10.8c-0.2,4,1.2,7.9,3.8,11c2.5,2.8,5.3,4.3,8.5,4.3c3.5,0,6.9-1.7,8.8-4.7
	C344.4,507.7,345.6,504,345.6,500.2L345.6,500.2z"/>
<path class="st1" d="M362,514.5v-28.7h-2c-0.4,0-0.9-0.1-1.2-0.3c-0.5-0.5-0.5-1.2,0-1.7c0,0,0,0,0,0c0.4-0.3,0.8-0.4,1.2-0.3h13
	c1.9,0,3.8,0.4,5.5,1.3c1.5,0.7,2.8,1.7,3.8,2.9c1.5,1.7,2.6,3.7,3.4,5.8c0.6,1.7,0.9,3.4,0.8,5.2v3.3c0,2.5-0.6,4.9-1.6,7.2
	c-1.2,2.5-3.1,4.6-5.5,6c-1.9,1.3-4.2,1.9-6.6,1.9h-13c-0.4,0-0.9-0.1-1.2-0.3c-0.5-0.5-0.5-1.2,0-1.7c0,0,0,0,0,0
	c0.4-0.3,0.8-0.4,1.2-0.3L362,514.5z M364.4,514.5h8.7c2.1,0,4.1-0.7,5.7-2c1.7-1.2,3.1-2.9,4-4.7c0.9-1.7,1.3-3.6,1.3-5.5v-4.4
	c0-1.4-0.2-2.7-0.7-4c-0.7-1.8-1.7-3.4-2.9-4.9c-0.8-1-1.9-1.7-3-2.3c-1.3-0.7-2.8-1.1-4.3-1h-8.7L364.4,514.5z"/>
<path class="st1" d="M401.7,500.7v13.8h18.5v-7.1c0-0.4,0.1-0.9,0.3-1.2c0.5-0.5,1.2-0.5,1.7,0c0,0,0,0,0,0c0.3,0.4,0.4,0.8,0.3,1.2
	v9.5h-26.6c-0.4,0-0.9-0.1-1.2-0.3c-0.5-0.4-0.5-1.2-0.1-1.7c0,0,0.1-0.1,0.1-0.1c0.4-0.3,0.8-0.4,1.2-0.3h3.2v-28.7h-3.2
	c-0.4,0-0.9-0.1-1.2-0.3c-0.5-0.5-0.5-1.2-0.1-1.7c0,0,0,0,0.1-0.1c0.4-0.3,0.8-0.4,1.2-0.3h25.3v8.3c0,0.4-0.1,0.9-0.3,1.2
	c-0.5,0.5-1.2,0.5-1.7,0c0,0,0,0,0,0c-0.3-0.4-0.4-0.8-0.3-1.2v-5.9h-17.3v12.5h8.6v-2.7c0-0.4,0.1-0.9,0.4-1.2
	c0.2-0.2,0.6-0.4,0.9-0.4c0.3,0,0.6,0.1,0.9,0.4c0.3,0.4,0.4,0.8,0.3,1.2v7.9c0,0.4-0.1,0.9-0.3,1.2c-0.2,0.2-0.5,0.4-0.9,0.4
	c-0.3,0-0.7-0.1-0.9-0.4c-0.3-0.4-0.4-0.8-0.4-1.2v-2.7H401.7z"/>
<path class="st1" d="M456.3,485.8V485c0-0.4,0.1-0.9,0.3-1.2c0.5-0.5,1.2-0.5,1.7-0.1c0,0,0,0,0.1,0.1c0.3,0.4,0.4,0.8,0.3,1.2v6.1
	c0,0.4-0.1,0.9-0.3,1.2c-0.5,0.5-1.2,0.5-1.7,0c0,0,0,0,0,0c-0.3-0.3-0.4-0.7-0.4-1.1c-0.2-1.7-1.1-3.3-2.5-4.3
	c-3.8-2.6-8.7-2.6-12.5,0.1c-1.5,1.2-2.3,2.9-2.4,4.8c0,0.9,0.2,1.8,0.7,2.6c0.4,0.8,1,1.4,1.7,1.9c0.8,0.5,1.6,0.9,2.5,1.2
	c1.4,0.4,2.8,0.7,4.3,0.9c2.3,0.3,4.6,0.8,6.8,1.6c3.1,1.3,5.1,4.4,5,7.8c0,2.7-1.2,5.3-3.3,7c-2.2,1.9-5.2,2.9-8.9,2.9
	c-3.7,0.2-7.4-1.3-10-3.9v1.4c0,0.4-0.1,0.9-0.3,1.2c-0.2,0.2-0.5,0.4-0.9,0.4c-0.3,0-0.6-0.1-0.9-0.4c-0.3-0.4-0.4-0.8-0.3-1.2
	v-6.6c0-0.4,0.1-0.9,0.3-1.3c0.2-0.2,0.5-0.4,0.9-0.4c0.3,0,0.6,0.1,0.9,0.3c0.3,0.3,0.4,0.7,0.4,1.1c0.2,1.9,1.2,3.7,2.8,4.8
	c2.1,1.5,4.6,2.3,7.2,2.2c2.6,0.1,5.1-0.7,7.1-2.3c1.6-1.3,2.6-3.3,2.6-5.4c0-1.2-0.3-2.4-1-3.4c-0.8-1-1.8-1.9-3-2.3
	c-1.9-0.6-3.8-1.1-5.7-1.4c-4-0.7-6.9-1.7-8.6-3.1c-1.8-1.4-2.8-3.6-2.6-5.9c0-2.5,1.1-4.9,3-6.5c2.2-1.9,5.1-2.9,8-2.7
	C450.8,482.5,453.9,483.6,456.3,485.8z"/>
<path class="st1" d="M487.1,485.8v28.7h6.2c0.4,0,0.9,0.1,1.2,0.3c0.5,0.5,0.5,1.2,0,1.7c0,0,0,0,0,0c-0.4,0.3-0.8,0.4-1.2,0.3
	h-14.9c-0.4,0-0.9-0.1-1.2-0.3c-0.5-0.5-0.5-1.2,0-1.7c0,0,0,0,0,0c0.4-0.3,0.8-0.4,1.2-0.3h6.2v-28.7h-9.9v8.3
	c0,0.4-0.1,0.9-0.3,1.3c-0.5,0.5-1.2,0.5-1.7,0c0,0,0,0,0,0c-0.3-0.4-0.4-0.8-0.4-1.3v-10.8h27v10.8c0,0.4-0.1,0.9-0.3,1.3
	c-0.2,0.2-0.5,0.4-0.9,0.4c-0.3,0-0.7-0.1-0.9-0.4c-0.3-0.4-0.4-0.8-0.3-1.3v-8.3H487.1z"/>
<path class="st1" d="M532.2,500.7h-16v13.8h3.2c0.4,0,0.9,0.1,1.2,0.3c0.5,0.5,0.5,1.2,0,1.7c0,0,0,0,0,0c-0.4,0.3-0.8,0.4-1.2,0.3
	h-8.3c-0.4,0-0.9-0.1-1.2-0.3c-0.5-0.4-0.5-1.2-0.1-1.7c0,0,0.1-0.1,0.1-0.1c0.4-0.3,0.8-0.4,1.2-0.3h2.7v-28.7h-1.5
	c-0.4,0-0.9-0.1-1.3-0.3c-0.5-0.5-0.5-1.2,0-1.7c0,0,0,0,0,0c0.4-0.3,0.8-0.4,1.3-0.3h7.1c0.4,0,0.9,0.1,1.2,0.3
	c0.5,0.5,0.5,1.2,0,1.7c0,0,0,0,0,0c-0.4,0.3-0.8,0.4-1.2,0.3h-3.2v12.5h16v-12.5H529c-0.4,0-0.9-0.1-1.2-0.3
	c-0.2-0.2-0.4-0.5-0.4-0.9c0-0.3,0.1-0.7,0.4-0.9c0.4-0.3,0.8-0.4,1.2-0.3h7.1c0.4,0,0.9,0.1,1.3,0.3c0.5,0.5,0.5,1.2,0,1.7
	c0,0,0,0,0,0c-0.4,0.3-0.8,0.4-1.3,0.3h-1.5v28.7h2.7c0.4,0,0.9,0.1,1.2,0.3c0.5,0.5,0.5,1.2,0,1.7c0,0,0,0,0,0
	c-0.4,0.3-0.8,0.4-1.2,0.3H529c-0.4,0-0.9-0.1-1.2-0.3c-0.2-0.2-0.4-0.5-0.4-0.9c0-0.3,0.1-0.6,0.4-0.9c0.4-0.3,0.8-0.4,1.2-0.3h3.2
	L532.2,500.7z"/>
<path class="st1" d="M554.4,500.7v13.8h18.5v-7.1c0-0.4,0.1-0.9,0.3-1.2c0.2-0.2,0.5-0.4,0.9-0.4c0.3,0,0.7,0.1,0.9,0.4
	c0.3,0.4,0.4,0.8,0.3,1.2v9.5h-26.6c-0.4,0-0.9-0.1-1.2-0.3c-0.5-0.5-0.5-1.2,0-1.7c0,0,0,0,0,0c0.4-0.3,0.8-0.4,1.2-0.3h3.3v-28.7
	h-3.2c-0.4,0-0.9-0.1-1.2-0.3c-0.5-0.5-0.5-1.2,0-1.7c0,0,0,0,0,0c0.4-0.3,0.8-0.4,1.2-0.3H574v8.3c0,0.4-0.1,0.9-0.3,1.2
	c-0.2,0.2-0.5,0.4-0.9,0.4c-0.3,0-0.7-0.1-0.9-0.4c-0.3-0.4-0.4-0.8-0.3-1.2v-5.9h-17.2v12.5h8.6v-2.7c0-0.4,0.1-0.9,0.3-1.2
	c0.2-0.2,0.6-0.4,0.9-0.4c0.3,0,0.6,0.1,0.9,0.4c0.3,0.4,0.4,0.8,0.3,1.2v7.9c0,0.4-0.1,0.9-0.3,1.2c-0.2,0.2-0.5,0.4-0.9,0.4
	c-0.3,0-0.7-0.1-0.9-0.4c-0.3-0.4-0.4-0.8-0.3-1.2v-2.7H554.4z"/>
<path class="st1" d="M601.5,485.8v28.7h6.2c0.4,0,0.9,0.1,1.2,0.3c0.5,0.4,0.5,1.2,0.1,1.7c0,0-0.1,0.1-0.1,0.1
	c-0.4,0.3-0.8,0.4-1.2,0.3h-14.9c-0.4,0-0.9-0.1-1.2-0.3c-0.5-0.4-0.5-1.2-0.1-1.7c0,0,0.1-0.1,0.1-0.1c0.4-0.3,0.8-0.4,1.2-0.3h6.2
	v-28.7h-9.9v8.3c0,0.4-0.1,0.9-0.3,1.3c-0.5,0.5-1.2,0.5-1.7,0c0,0,0,0,0,0c-0.3-0.4-0.4-0.8-0.3-1.3v-10.8h27v10.8
	c0,0.4-0.1,0.9-0.3,1.3c-0.5,0.5-1.2,0.5-1.7,0c0,0,0,0,0,0c-0.3-0.4-0.4-0.8-0.3-1.3v-8.3H601.5z"/>
<path class="st1" d="M639.7,485.8v28.7h8.3c0.4,0,0.9,0.1,1.2,0.3c0.5,0.5,0.5,1.2,0,1.7c0,0,0,0,0,0c-0.4,0.3-0.8,0.4-1.2,0.3
	h-18.9c-0.4,0-0.9-0.1-1.2-0.3c-0.5-0.5-0.5-1.2,0-1.7c0,0,0,0,0,0c0.4-0.3,0.8-0.4,1.2-0.3h8.3v-28.7h-8.3c-0.4,0-0.9-0.1-1.2-0.3
	c-0.5-0.5-0.5-1.2,0-1.7c0,0,0,0,0,0c0.4-0.3,0.8-0.4,1.2-0.3H648c0.4,0,0.9,0.1,1.2,0.3c0.5,0.5,0.5,1.2,0,1.7c0,0,0,0,0,0
	c-0.4,0.3-0.8,0.4-1.2,0.3H639.7z"/>
<path class="st1" d="M687.3,486.6V485c0-0.4,0.1-0.9,0.3-1.2c0.4-0.5,1.2-0.5,1.7-0.1c0,0,0,0,0.1,0.1c0.3,0.4,0.4,0.8,0.3,1.2v6.7
	c0,0.4-0.1,0.9-0.3,1.3c-0.5,0.5-1.2,0.5-1.7,0c0,0,0,0,0,0c-0.3-0.3-0.4-0.7-0.4-1.1c-0.2-1.7-1.1-3.3-2.6-4.3
	c-2.2-1.7-4.8-2.6-7.6-2.6c-1.8,0-3.6,0.4-5.2,1.2c-1.1,0.5-2.1,1.3-2.9,2.2c-1.3,1.5-2.3,3.2-3,5c-0.6,1.4-0.8,3-0.8,4.5v4.2
	c0,3.5,1.4,6.9,3.9,9.4c2.3,2.5,5.6,4,9.1,4c1.9,0,3.8-0.4,5.5-1.3c1.8-1.1,3.4-2.4,4.8-4.1c0.2-0.4,0.6-0.6,1.1-0.6
	c0.3,0,0.6,0.1,0.8,0.3c0.2,0.2,0.3,0.5,0.3,0.8c-0.2,0.8-0.6,1.5-1.2,2c-1.5,1.7-3.3,3.1-5.3,4c-1.9,0.9-3.9,1.3-6,1.3
	c-1.8,0-3.6-0.4-5.3-1c-1.2-0.4-2.4-1-3.4-1.8c-1.2-1-2.3-2.2-3.3-3.5c-1.1-1.3-2.1-2.9-2.7-4.5c-0.5-1.5-0.7-3-0.7-4.6v-4.9
	c0-2.5,0.7-5,1.9-7.3c1.2-2.4,3-4.3,5.2-5.7c2.2-1.3,4.6-2,7.2-2C680.8,482.6,684.5,484,687.3,486.6z"/>
<path class="st1" d="M307.8,509.2c-0.5,0-1,0.3-1.2,0.7c-1.3,1.6-2.9,3-4.7,4c-1.7,0.9-3.6,1.4-5.5,1.3c-3.4,0-6.6-1.4-8.9-3.9
	c-2.5-2.4-3.9-5.7-3.8-9.2v-4.2c0-1.5,0.2-3,0.8-4.5c0.7-1.8,1.8-3.4,3-4.9c0.8-0.9,1.8-1.6,2.9-2.1c1.6-0.8,3.4-1.2,5.2-1.2
	c2.7,0,5.3,0.9,7.4,2.5c1.4,0.9,2.4,2.4,2.5,4.1c0,0.5,0.2,0.9,0.4,1.2c0.5,0.6,1.4,0.6,2,0c0,0,0,0,0,0c0.3-0.4,0.4-0.9,0.4-1.4
	V485c0-0.5-0.1-1-0.4-1.4c-0.5-0.6-1.4-0.6-2-0.1c0,0,0,0-0.1,0.1c-0.3,0.4-0.4,0.9-0.4,1.4v1.2c-2.8-2.5-6.3-3.9-10.1-3.8
	c-2.6,0-5.1,0.7-7.3,2c-2.3,1.4-4.1,3.4-5.3,5.8c-1.2,2.3-1.9,4.8-1.9,7.4v4.9c0,1.6,0.2,3.1,0.7,4.6c0.6,1.7,1.6,3.2,2.7,4.6
	c1,1.3,2.1,2.5,3.3,3.5c1.1,0.8,2.2,1.4,3.5,1.8c1.7,0.7,3.5,1,5.4,1c2.1,0,4.1-0.5,6-1.3c2-0.9,3.9-2.3,5.4-4
	c0.6-0.6,1.1-1.3,1.3-2.1c0-0.4-0.1-0.7-0.4-0.9C308.6,509.3,308.2,509.2,307.8,509.2z"/>
<path class="st1" d="M340.7,484.7c-2.2-1.5-4.8-2.3-7.5-2.3c-4,0.1-7.8,1.9-10.4,5c-3,3.3-4.5,7.6-4.5,12.8s1.5,9.5,4.5,12.8
	c2.6,3.1,6.4,4.9,10.4,5c2.7,0,5.3-0.8,7.5-2.3c2.4-1.6,4.3-3.9,5.5-6.5c1.3-2.8,2-5.9,2-9c0-3.1-0.7-6.2-2-9
	C345,488.6,343.1,486.3,340.7,484.7z M341.9,510.7c-1.9,2.9-5.2,4.6-8.7,4.6c-3.1,0-5.9-1.4-8.4-4.2c-2.6-3-3.9-6.9-3.7-10.8
	c-0.1-3.9,1.2-7.6,3.5-10.6c2-2.7,5.1-4.4,8.5-4.4c3.5,0,6.7,1.7,8.7,4.6C346.4,496,346.4,504.4,341.9,510.7L341.9,510.7z"/>
<path class="st1" d="M382.4,487.4c-1.1-1.2-2.4-2.2-3.9-2.9c-1.8-0.9-3.7-1.3-5.6-1.3h-12.9c-0.5,0-1,0.1-1.4,0.4
	c-0.6,0.5-0.6,1.4-0.1,2c0,0,0,0,0.1,0.1c0.4,0.3,0.9,0.4,1.4,0.4h1.8v28.3h-1.8c-0.5,0-1,0.1-1.4,0.4c-0.3,0.3-0.5,0.6-0.4,1
	c0,0.4,0.1,0.7,0.4,1c0.4,0.3,0.9,0.4,1.4,0.4h13c2.4,0,4.7-0.6,6.7-1.9c2.4-1.5,4.3-3.6,5.5-6.1c1.1-2.3,1.7-4.7,1.7-7.2v-3.3
	c0-1.8-0.3-3.6-0.9-5.3C385,491,383.9,489.1,382.4,487.4z M383.9,502.3c0,1.9-0.5,3.7-1.3,5.4c-0.9,1.9-2.3,3.5-3.9,4.7
	c-1.6,1.2-3.6,1.9-5.6,1.9h-8.5V486h8.5c1.5,0,2.9,0.3,4.2,1c1.1,0.5,2.2,1.3,3,2.2c1.2,1.4,2.2,3,2.9,4.8c0.5,1.2,0.7,2.6,0.7,3.9
	L383.9,502.3z"/>
<path class="st1" d="M421.4,505.6c-0.4,0-0.7,0.2-1,0.4c-0.3,0.4-0.4,0.9-0.4,1.4v6.9h-18.1v-13.4h8.2v2.5c0,0.5,0.1,1,0.4,1.4
	c0.3,0.3,0.6,0.4,1,0.4c0.4,0,0.7-0.2,1-0.4c0.3-0.4,0.4-0.9,0.4-1.4v-7.9c0-0.5-0.1-1-0.4-1.4c-0.3-0.3-0.6-0.4-1-0.4
	c-0.4,0-0.7,0.2-1,0.4c-0.3,0.4-0.4,0.9-0.4,1.4v2.5h-8.2V486h16.9v5.7c0,0.5,0.1,1,0.4,1.4c0.5,0.6,1.4,0.6,2,0.1c0,0,0,0,0.1-0.1
	c0.3-0.4,0.4-0.9,0.4-1.4v-8.3c0-0.1-0.1-0.2-0.2-0.2h0h-25.3c-0.5,0-1,0.1-1.4,0.4c-0.6,0.5-0.6,1.4-0.1,2c0,0,0,0,0.1,0.1
	c0.4,0.3,0.9,0.4,1.4,0.4h3v28.3h-3c-0.5,0-1,0.1-1.4,0.4c-0.6,0.5-0.6,1.4,0,2c0,0,0,0,0,0c0.4,0.3,0.9,0.4,1.4,0.4h26.6
	c0.1,0,0.2-0.1,0.2-0.2l0,0v-9.5c0-0.5-0.1-1-0.4-1.4C422.2,505.7,421.8,505.6,421.4,505.6z"/>
<path class="st1" d="M455.1,499.9c-2.2-0.8-4.5-1.4-6.8-1.6c-1.4-0.2-2.9-0.5-4.3-0.9c-0.9-0.3-1.7-0.7-2.4-1.1
	c-0.7-0.5-1.3-1.1-1.7-1.8c-0.4-0.8-0.6-1.6-0.6-2.5c0-1.8,0.9-3.5,2.3-4.7c3.6-2.6,8.5-2.7,12.2-0.1c1.4,1,2.2,2.5,2.4,4.2
	c0,0.5,0.1,0.9,0.4,1.2c0.5,0.6,1.4,0.6,2,0c0,0,0,0,0,0c0.3-0.4,0.4-0.9,0.4-1.4V485c0-0.5-0.1-1-0.4-1.4c-0.5-0.6-1.4-0.6-2-0.1
	c0,0,0,0-0.1,0.1c-0.3,0.4-0.4,0.9-0.4,1.4v0.4c-2.4-2-5.4-3-8.5-3c-3-0.1-5.9,0.9-8.1,2.8c-2,1.7-3.1,4.1-3.1,6.7
	c-0.1,2.3,0.9,4.6,2.7,6c1.8,1.4,4.7,2.4,8.7,3.1c1.9,0.3,3.8,0.7,5.7,1.3c1.2,0.5,2.2,1.3,2.9,2.3c0.7,1,1,2.1,1,3.2
	c0,2-1,4-2.6,5.2c-2,1.6-4.5,2.3-7,2.2c-2.5,0.1-5-0.6-7.1-2.1c-1.6-1.1-2.6-2.8-2.8-4.6c0-0.5-0.1-0.9-0.4-1.2
	c-0.3-0.3-0.6-0.4-1-0.4c-0.4,0-0.7,0.2-1,0.4c-0.3,0.4-0.4,0.9-0.4,1.4v6.7c0,0.5,0.1,1,0.4,1.4c0.5,0.6,1.4,0.6,2,0c0,0,0,0,0,0
	c0.3-0.4,0.4-0.9,0.4-1.4v-0.9c2.7,2.5,6.2,3.8,9.8,3.6c3.3,0.1,6.5-0.9,9-3c2.1-1.8,3.4-4.4,3.4-7.2
	C460.4,504.4,458.3,501.2,455.1,499.9L455.1,499.9z"/>
<path class="st1" d="M499.3,483.1h-27c-0.1,0-0.2,0.1-0.2,0.2v0v10.8c0,0.5,0.1,1,0.4,1.4c0.5,0.6,1.4,0.6,2,0c0,0,0,0,0,0
	c0.3-0.4,0.4-0.9,0.4-1.4V486h9.5v28.3h-6c-0.5,0-1,0.1-1.4,0.4c-0.3,0.2-0.5,0.6-0.5,1c0,0.4,0.2,0.7,0.4,1
	c0.4,0.3,0.9,0.4,1.4,0.4h14.9c0.5,0,1-0.1,1.4-0.4c0.3-0.3,0.4-0.6,0.4-1c0-0.4-0.2-0.8-0.5-1c-0.4-0.3-0.9-0.4-1.4-0.4h-6V486h9.5
	v8.1c0,0.5,0.1,1,0.4,1.4c0.5,0.6,1.5,0.6,2,0c0,0,0,0,0,0c0.3-0.4,0.4-0.9,0.4-1.4v-10.8C499.5,483.3,499.4,483.2,499.3,483.1z"/>
<path class="st1" d="M537.3,514.3h-2.5V486h1.3c0.5,0,1-0.1,1.4-0.4c0.6-0.5,0.6-1.4,0.1-2c0,0,0,0-0.1-0.1
	c-0.4-0.3-0.9-0.4-1.4-0.4H529c-0.5,0-1,0.1-1.4,0.4c-0.3,0.3-0.4,0.6-0.4,1c0,0.4,0.2,0.7,0.4,1c0.4,0.3,0.9,0.5,1.4,0.4h3v12.1
	h-15.6V486h3c0.5,0,1-0.1,1.4-0.4c0.6-0.5,0.6-1.4,0.1-2c0,0,0,0-0.1-0.1c-0.4-0.3-0.9-0.4-1.4-0.4h-7.1c-0.5,0-1,0.1-1.4,0.4
	c-0.3,0.3-0.4,0.6-0.4,1c0,0.4,0.2,0.8,0.5,1c0.4,0.3,0.9,0.4,1.4,0.4h1.3v28.3h-2.5c-0.5,0-1,0.1-1.4,0.4c-0.6,0.5-0.6,1.4,0,2
	c0,0,0,0,0,0c0.4,0.3,0.9,0.4,1.4,0.4h8.4c0.5,0,1-0.1,1.4-0.4c0.6-0.5,0.6-1.4,0-2c0,0,0,0,0,0c-0.4-0.3-0.9-0.4-1.4-0.4h-3v-13.4
	H532v13.4h-3c-0.5,0-1,0.1-1.4,0.4c-0.3,0.3-0.4,0.6-0.4,1c0,0.4,0.1,0.7,0.4,1c0.4,0.3,0.9,0.4,1.4,0.4h8.4c0.5,0,1-0.1,1.4-0.4
	c0.3-0.2,0.5-0.6,0.4-1c0-0.4-0.2-0.7-0.4-1C538.3,514.4,537.8,514.2,537.3,514.3z"/>
<path class="st1" d="M574.1,505.6c-0.4,0-0.7,0.2-1,0.4c-0.3,0.4-0.4,0.9-0.4,1.4v6.9h-18.1v-13.4h8.2v2.5c0,0.5,0.1,1,0.4,1.4
	c0.3,0.3,0.6,0.4,1,0.4c0.4,0,0.7-0.2,1-0.4c0.3-0.4,0.4-0.9,0.4-1.4v-7.9c0-0.5-0.1-1-0.4-1.4c-0.3-0.3-0.6-0.4-1-0.4
	c-0.4,0-0.7,0.2-1,0.4c-0.3,0.4-0.4,0.9-0.4,1.4v2.5h-8.2V486h16.8v5.7c0,0.5,0.1,1,0.4,1.4c0.5,0.6,1.5,0.6,2,0c0,0,0,0,0,0
	c0.3-0.4,0.4-0.9,0.4-1.4v-8.3c0-0.1-0.1-0.2-0.2-0.2l0,0h-25.3c-0.5,0-1,0.1-1.4,0.4c-0.6,0.5-0.6,1.4-0.1,2c0,0,0,0,0.1,0.1
	c0.4,0.3,0.9,0.4,1.4,0.4h3v28.3h-3c-0.5,0-1,0.1-1.4,0.4c-0.3,0.3-0.4,0.6-0.4,1c0,0.4,0.1,0.7,0.4,1c0.4,0.3,0.9,0.4,1.4,0.4h26.6
	c0.1,0,0.2-0.1,0.2-0.2l0,0v-9.5c0-0.5-0.1-1-0.4-1.4C574.9,505.7,574.5,505.6,574.1,505.6z"/>
<path class="st1" d="M613.8,483.1h-27c-0.1,0-0.2,0.1-0.2,0.2v10.8c0,0.5,0.1,1,0.4,1.4c0.5,0.6,1.4,0.6,2,0c0,0,0,0,0,0
	c0.3-0.4,0.4-0.9,0.4-1.4V486h9.5v28.3h-6c-0.5,0-1,0.1-1.4,0.4c-0.6,0.5-0.6,1.4,0,2c0,0,0,0,0,0c0.4,0.3,0.9,0.4,1.4,0.4h15
	c0.5,0,1-0.1,1.4-0.4c0.6-0.5,0.6-1.4,0-2c0,0,0,0,0,0c-0.4-0.3-0.9-0.4-1.4-0.4h-6V486h9.5v8.1c0,0.5,0.1,1,0.4,1.4
	c0.5,0.6,1.4,0.6,2,0c0,0,0,0,0,0c0.3-0.4,0.4-0.9,0.4-1.4v-10.8C614,483.2,613.9,483.2,613.8,483.1z"/>
<path class="st1" d="M648,486c0.5,0,1-0.1,1.4-0.4c0.6-0.5,0.6-1.4,0.1-2c0,0,0,0-0.1-0.1c-0.4-0.3-0.9-0.4-1.4-0.4h-18.9
	c-0.5,0-1,0.1-1.4,0.4c-0.6,0.5-0.6,1.4-0.1,2c0,0,0,0,0.1,0.1c0.4,0.3,0.9,0.4,1.4,0.4h8v28.3h-8c-0.5,0-1,0.1-1.4,0.4
	c-0.6,0.5-0.6,1.4,0,2c0,0,0,0,0,0c0.4,0.3,0.9,0.4,1.4,0.4H648c0.5,0,1-0.1,1.4-0.4c0.6-0.5,0.6-1.4,0-2c0,0,0,0,0,0
	c-0.4-0.3-0.9-0.4-1.4-0.4h-8V486H648z"/>
<path class="st1" d="M689.5,509.2c-0.5,0-1,0.3-1.2,0.7c-1.3,1.6-2.9,3-4.7,4c-1.7,0.9-3.5,1.4-5.4,1.3c-3.4,0-6.6-1.4-8.9-3.9
	c-2.5-2.4-3.9-5.7-3.8-9.2v-4.2c0-1.5,0.2-3,0.8-4.5c0.7-1.8,1.8-3.4,3-4.9c0.8-0.9,1.8-1.6,2.9-2.1c1.6-0.8,3.4-1.2,5.2-1.2
	c2.7,0,5.3,0.9,7.5,2.5c1.4,0.9,2.3,2.4,2.5,4.1c0,0.5,0.2,0.9,0.5,1.2c0.3,0.3,0.6,0.4,1,0.4c0.4,0,0.7-0.2,1-0.4
	c0.3-0.4,0.4-0.9,0.4-1.4V485c0-0.5-0.1-1-0.4-1.4c-0.5-0.6-1.5-0.6-2,0c0,0,0,0,0,0c-0.3,0.4-0.4,0.9-0.4,1.4v1.2
	c-2.8-2.5-6.4-3.9-10.1-3.9c-2.6,0-5.1,0.7-7.3,2c-2.3,1.4-4.1,3.4-5.3,5.8c-1.2,2.3-1.9,4.8-1.9,7.4v4.9c0,1.6,0.2,3.1,0.7,4.6
	c0.6,1.7,1.6,3.2,2.7,4.6c1,1.3,2.1,2.5,3.3,3.5c1.1,0.8,2.2,1.4,3.5,1.8c1.7,0.7,3.5,1,5.4,1c2.1,0,4.1-0.5,6-1.3
	c2-0.9,3.9-2.3,5.3-4c0.6-0.6,1.1-1.3,1.3-2.1c0-0.4-0.1-0.7-0.4-0.9C690.1,509.3,689.8,509.2,689.5,509.2z"/>
<path class="st1" d="M726,503.1c-0.9-1.4-2.3-2.5-3.8-3.2c-2.2-0.8-4.5-1.3-6.8-1.6c-1.4-0.2-2.9-0.5-4.3-0.9
	c-0.9-0.3-1.7-0.7-2.4-1.1c-0.7-0.5-1.3-1.1-1.7-1.8c-0.4-0.8-0.6-1.6-0.6-2.5c0-1.8,0.9-3.5,2.3-4.7c3.6-2.6,8.5-2.7,12.2-0.1
	c1.4,1,2.2,2.5,2.4,4.2c0,0.5,0.1,0.9,0.4,1.2c0.5,0.6,1.4,0.6,2,0c0,0,0,0,0,0c0.3-0.4,0.4-0.9,0.4-1.4V485c0-0.5-0.1-1-0.4-1.4
	c-0.5-0.6-1.4-0.6-2-0.1c0,0,0,0-0.1,0.1c-0.3,0.4-0.4,0.9-0.4,1.4v0.4c-2.4-2-5.4-3-8.5-3c-3-0.1-5.9,0.9-8.1,2.8
	c-2,1.7-3.1,4.1-3.1,6.7c-0.1,2.3,0.9,4.6,2.7,6c1.8,1.4,4.7,2.4,8.7,3.1c1.9,0.3,3.8,0.7,5.7,1.3c1.2,0.5,2.2,1.3,2.9,2.3
	c0.7,1,1,2.1,1,3.2c0,2-1,3.9-2.6,5.2c-2,1.6-4.5,2.3-7,2.2c-2.5,0.1-5-0.6-7.1-2.1c-1.6-1.1-2.6-2.8-2.8-4.6c0-0.5-0.1-0.9-0.4-1.2
	c-0.3-0.3-0.6-0.4-1-0.4c-0.4,0-0.7,0.2-1,0.4c-0.3,0.4-0.4,0.9-0.4,1.4v6.7c0,0.5,0.1,1,0.4,1.4c0.5,0.6,1.4,0.6,2,0c0,0,0,0,0,0
	c0.3-0.4,0.4-0.9,0.4-1.4v-0.9c2.7,2.5,6.2,3.8,9.8,3.6c3.3,0.1,6.5-0.9,9-3c2.1-1.8,3.4-4.4,3.4-7.2
	C727.4,506.1,726.9,504.5,726,503.1z"/>
<path class="st1" d="M307.8,508.9c-0.6,0-1.2,0.3-1.5,0.8c-1.3,1.6-2.8,2.9-4.6,3.9c-1.6,0.9-3.4,1.3-5.3,1.3
	c-3.3,0-6.4-1.4-8.7-3.8c-2.4-2.4-3.8-5.6-3.7-9v-4.2c0-1.5,0.2-2.9,0.8-4.3c0.7-1.7,1.7-3.4,2.9-4.8c0.8-0.9,1.7-1.5,2.8-2
	c1.6-0.8,3.3-1.2,5-1.2c2.6,0,5.2,0.8,7.2,2.4c1.3,0.9,2.2,2.3,2.4,3.9c0,0.5,0.2,1.1,0.5,1.5c0.3,0.3,0.8,0.5,1.2,0.5
	c0.5,0,1-0.2,1.3-0.6c0.4-0.5,0.5-1,0.5-1.6V485c0-0.6-0.1-1.1-0.5-1.6c-0.7-0.7-1.8-0.7-2.5-0.1c0,0-0.1,0.1-0.1,0.1
	c-0.4,0.5-0.5,1-0.5,1.6v0.5c-2.7-2.2-6.2-3.4-9.7-3.4c-2.6,0-5.2,0.7-7.5,2.1c-2.3,1.4-4.2,3.5-5.4,5.9c-1.3,2.3-1.9,4.9-2,7.5v4.9
	c0,1.6,0.2,3.2,0.8,4.8c0.7,1.7,1.6,3.3,2.8,4.7c1,1.3,2.1,2.5,3.4,3.6c1.1,0.8,2.3,1.4,3.5,1.9c1.8,0.7,3.6,1,5.5,1
	c2.1,0,4.3-0.5,6.2-1.4c2.1-1,4-2.4,5.5-4.1c0.7-0.6,1.2-1.5,1.4-2.4c0-0.9-0.7-1.6-1.6-1.7C307.9,508.8,307.9,508.8,307.8,508.9
	L307.8,508.9z"/>
<path class="st1" d="M340.9,484.4c-2.2-1.5-4.9-2.4-7.6-2.4c-4.1,0-8,1.9-10.7,5.1c-3,3.4-4.6,7.8-4.6,13.1s1.5,9.7,4.6,13.1
	c2.6,3.2,6.5,5.1,10.7,5.1c2.7,0,5.4-0.8,7.7-2.4c2.4-1.7,4.4-4,5.6-6.6c1.3-2.9,2-6,2-9.2c0-3.2-0.7-6.3-2-9.2
	C345.3,488.4,343.3,486.1,340.9,484.4z M341.7,510.4c-1.9,2.8-5,4.5-8.4,4.4c-3,0-5.7-1.4-8.1-4.1c-2.5-3-3.8-6.7-3.6-10.6
	c-0.1-3.8,1.1-7.4,3.4-10.4c1.9-2.6,5-4.2,8.2-4.2c3.4,0,6.5,1.7,8.4,4.5C346,496.1,346,504.3,341.7,510.4L341.7,510.4z"/>
<path class="st1" d="M382.7,487.1c-1.1-1.3-2.5-2.3-4-3c-1.8-0.9-3.8-1.3-5.8-1.3h-13c-0.6,0-1.2,0.1-1.6,0.5
	c-0.7,0.7-0.7,1.8-0.1,2.5c0,0,0.1,0.1,0.1,0.1c0.5,0.3,1,0.5,1.6,0.5h1.5v27.6h-1.5c-0.6,0-1.1,0.1-1.6,0.5
	c-0.4,0.3-0.6,0.8-0.6,1.3c0,0.5,0.2,0.9,0.6,1.3c0.5,0.4,1,0.5,1.6,0.5h13c2.4,0,4.8-0.7,6.9-2c2.4-1.5,4.4-3.7,5.6-6.3
	c1.1-2.3,1.7-4.8,1.7-7.4v-3.3c0-1.8-0.3-3.7-0.9-5.4C385.4,490.9,384.2,488.9,382.7,487.1z M383.6,502.3c0,1.8-0.5,3.6-1.3,5.2
	c-0.9,1.8-2.2,3.4-3.8,4.5c-1.5,1.2-3.4,1.8-5.4,1.9h-8.2v-27.6h8.2c1.4,0,2.8,0.3,4.1,1c1.1,0.5,2.1,1.3,2.9,2.2
	c1.2,1.4,2.1,3,2.8,4.7c0.5,1.2,0.7,2.5,0.7,3.8L383.6,502.3z"/>
<path class="st1" d="M421.4,505.2c-0.5,0-1,0.2-1.3,0.6c-0.3,0.5-0.5,1-0.5,1.6v6.5h-17.4v-12.7h7.5v2.2c0,0.6,0.1,1.2,0.5,1.6
	c0.7,0.7,1.8,0.7,2.5,0.1c0,0,0,0,0.1-0.1c0.4-0.5,0.5-1,0.5-1.6v-7.9c0-0.6-0.1-1.2-0.5-1.6c-0.3-0.4-0.8-0.6-1.3-0.5
	c-0.5,0-1,0.2-1.3,0.5c-0.4,0.5-0.5,1-0.5,1.6v2.2h-7.5v-11.4h16.1v5.3c0,0.6,0.1,1.1,0.5,1.6c0.7,0.7,1.8,0.7,2.5,0.1
	c0,0,0,0,0.1-0.1c0.3-0.5,0.5-1,0.5-1.6v-8.3c0-0.3-0.3-0.6-0.6-0.5h-25.3c-0.6,0-1.1,0.1-1.6,0.5c-0.7,0.7-0.7,1.8-0.1,2.5
	c0,0,0.1,0.1,0.1,0.1c0.5,0.3,1,0.5,1.6,0.5h2.7v27.6h-2.7c-0.6,0-1.1,0.1-1.6,0.5c-0.7,0.7-0.7,1.8-0.1,2.5c0,0,0.1,0.1,0.1,0.1
	c0.5,0.4,1,0.5,1.6,0.5h26.6c0.3,0,0.6-0.2,0.6-0.5v-9.5c0-0.6-0.1-1.1-0.5-1.6C422.4,505.4,421.9,505.2,421.4,505.2z"/>
<path class="st1" d="M455.2,499.6c-2.2-0.8-4.5-1.4-6.9-1.7c-1.4-0.2-2.8-0.5-4.2-0.9c-0.8-0.3-1.6-0.6-2.3-1.1
	c-0.6-0.4-1.2-1-1.6-1.7c-0.4-0.7-0.6-1.5-0.6-2.3c0-1.7,0.8-3.3,2.2-4.4c3.5-2.5,8.2-2.5,11.7-0.1c1.3,0.9,2.1,2.3,2.3,3.9
	c0,0.5,0.2,1.1,0.5,1.5c0.7,0.7,1.8,0.7,2.5,0c0,0,0,0,0,0c0.3-0.5,0.5-1,0.5-1.6V485c0-0.6-0.1-1.1-0.5-1.6
	c-0.7-0.7-1.8-0.7-2.5-0.1c0,0-0.1,0.1-0.1,0.1c-0.3,0.4-0.4,0.8-0.5,1.2c-2.4-1.7-5.2-2.6-8.1-2.6c-3-0.1-6,0.9-8.4,2.9
	c-2,1.7-3.2,4.3-3.2,6.9c-0.1,2.4,0.9,4.8,2.9,6.3c1.8,1.4,4.8,2.5,8.9,3.2c1.9,0.3,3.8,0.7,5.6,1.3c1.1,0.4,2.1,1.2,2.8,2.1
	c0.6,0.9,0.9,2,0.9,3c0,1.9-0.9,3.7-2.4,4.9c-1.9,1.5-4.3,2.3-6.8,2.1c-2.4,0.1-4.9-0.6-6.9-2c-1.5-1-2.4-2.6-2.6-4.4
	c0-0.5-0.2-1.1-0.5-1.5c-0.7-0.7-1.8-0.7-2.5-0.1c0,0,0,0-0.1,0.1c-0.4,0.5-0.5,1-0.5,1.6v6.6c0,0.6,0.1,1.2,0.5,1.6
	c0.3,0.4,0.8,0.6,1.3,0.5c0.5,0,1-0.2,1.3-0.6c0.4-0.5,0.5-1,0.5-1.6v-0.1c2.7,2.2,6,3.3,9.5,3.2c3.3,0.2,6.6-0.9,9.2-3
	c2.2-1.8,3.5-4.6,3.5-7.5c0-1.8-0.4-3.5-1.4-5C458.2,501.5,456.8,500.3,455.2,499.6z"/>
<path class="st1" d="M499.3,482.8h-27c-0.3,0-0.5,0.2-0.5,0.5v10.8c0,0.6,0.1,1.2,0.5,1.6c0.3,0.4,0.8,0.6,1.3,0.5
	c0.5,0,1-0.2,1.3-0.6c0.4-0.5,0.5-1,0.5-1.6v-7.8h8.8v27.6h-5.7c-0.6,0-1.1,0.1-1.6,0.5c-0.4,0.3-0.6,0.8-0.6,1.3
	c0,0.5,0.2,0.9,0.5,1.3c0.5,0.4,1,0.5,1.6,0.5h14.9c0.6,0,1.2-0.1,1.6-0.5c0.4-0.3,0.6-0.8,0.5-1.3c0-0.5-0.2-1-0.6-1.3
	c-0.5-0.3-1-0.5-1.6-0.5h-5.7v-27.6h8.8v7.8c0,0.6,0.1,1.2,0.5,1.6c0.7,0.7,1.8,0.7,2.5,0.1c0,0,0.1-0.1,0.1-0.1
	c0.4-0.5,0.5-1,0.5-1.6v-10.7C499.9,483.1,499.6,482.8,499.3,482.8z"/>
<path class="st1" d="M537.3,513.9h-2.2v-27.6h0.9c0.6,0,1.2-0.1,1.6-0.5c0.4-0.3,0.6-0.8,0.6-1.3c0-0.5-0.2-1-0.6-1.3
	c-0.5-0.3-1-0.5-1.6-0.5H529c-0.6-0.1-1.2,0.1-1.6,0.5c-0.4,0.3-0.6,0.8-0.5,1.3c0,0.5,0.2,1,0.6,1.3c0.5,0.3,1,0.5,1.6,0.5h2.7
	v11.4h-14.9v-11.4h2.7c0.6,0,1.1-0.1,1.6-0.5c0.4-0.3,0.6-0.8,0.6-1.3c0-0.5-0.2-1-0.6-1.3c-0.5-0.3-1-0.5-1.6-0.5h-7.1
	c-0.6,0-1.2,0.1-1.6,0.5c-0.7,0.7-0.7,1.8-0.1,2.5c0,0,0.1,0.1,0.1,0.1c0.5,0.3,1,0.5,1.6,0.5h0.9v27.6h-2.2c-0.6,0-1.1,0.1-1.6,0.5
	c-0.7,0.7-0.7,1.8-0.1,2.5c0,0,0.1,0.1,0.1,0.1c0.5,0.4,1,0.5,1.6,0.5h8.4c0.6,0,1.2-0.1,1.6-0.5c0.7-0.7,0.7-1.8,0.1-2.5
	c0,0-0.1-0.1-0.1-0.1c-0.5-0.3-1-0.5-1.6-0.5h-2.7v-12.7h14.8v12.7H529c-0.6,0-1.2,0.1-1.6,0.5c-0.4,0.3-0.6,0.8-0.5,1.3
	c0,0.5,0.2,0.9,0.6,1.3c0.5,0.4,1,0.5,1.6,0.5h8.4c0.6,0.1,1.2-0.1,1.6-0.4c0.4-0.3,0.6-0.8,0.6-1.3c0-0.5-0.2-1-0.6-1.3
	C538.5,514.1,537.9,513.9,537.3,513.9z"/>
<path class="st1" d="M574.1,505.2c-0.5,0-1,0.2-1.3,0.6c-0.3,0.5-0.5,1-0.5,1.6v6.5h-17.4v-12.7h7.5v2.2c0,0.6,0.1,1.2,0.5,1.6
	c0.3,0.4,0.8,0.6,1.3,0.5c0.5,0,0.9-0.2,1.3-0.5c0.4-0.5,0.5-1,0.5-1.6v-7.9c0-0.6-0.1-1.2-0.5-1.6c-0.3-0.4-0.8-0.6-1.3-0.5
	c-0.5,0-1,0.2-1.3,0.5c-0.4,0.5-0.5,1-0.5,1.6v2.2h-7.5v-11.4h16.1v5.3c0,0.6,0.1,1.1,0.5,1.6c0.7,0.7,1.8,0.7,2.5,0.1
	c0,0,0.1-0.1,0.1-0.1c0.3-0.5,0.5-1,0.5-1.6v-8.3c0-0.3-0.3-0.6-0.6-0.5h-25.3c-0.6,0-1.1,0.1-1.6,0.5c-0.7,0.7-0.7,1.8,0,2.5
	c0,0,0,0,0,0c0.5,0.3,1,0.5,1.6,0.5h2.7v27.6h-2.7c-0.6,0-1.1,0.1-1.6,0.5c-0.4,0.3-0.6,0.8-0.5,1.3c0,0.5,0.2,0.9,0.5,1.3
	c0.5,0.4,1,0.5,1.6,0.5h26.6c0.3,0,0.5-0.2,0.5-0.5v-9.5c0-0.6-0.1-1.1-0.5-1.6C575,505.4,574.6,505.2,574.1,505.2z"/>
<path class="st1" d="M613.8,482.8h-27c-0.3,0-0.6,0.2-0.6,0.5v10.8c0,0.6,0.1,1.2,0.5,1.6c0.3,0.4,0.8,0.6,1.3,0.5
	c0.5,0,1-0.2,1.3-0.6c0.4-0.5,0.5-1,0.5-1.6v-7.8h8.8v27.6h-5.7c-0.6,0-1.1,0.1-1.6,0.5c-0.7,0.7-0.7,1.8-0.1,2.5
	c0,0,0.1,0.1,0.1,0.1c0.5,0.4,1,0.5,1.6,0.5h15c0.6,0,1.2-0.1,1.6-0.5c0.7-0.7,0.7-1.8,0.1-2.5c0,0-0.1-0.1-0.1-0.1
	c-0.5-0.3-1-0.5-1.6-0.5h-5.7v-27.6h8.8v7.8c0,0.6,0.1,1.2,0.5,1.6c0.3,0.4,0.8,0.6,1.3,0.6c0.5,0,1-0.2,1.3-0.6
	c0.3-0.5,0.5-1,0.5-1.6v-10.7C614.4,483,614.1,482.8,613.8,482.8L613.8,482.8z"/>
<path class="st1" d="M648,486.3c0.6,0,1.1-0.1,1.6-0.5c0.4-0.3,0.6-0.8,0.6-1.3c0-0.5-0.2-1-0.6-1.3c-0.5-0.3-1-0.5-1.6-0.5h-18.9
	c-0.6,0-1.1,0.1-1.6,0.5c-0.7,0.7-0.7,1.8-0.1,2.5c0,0,0.1,0.1,0.1,0.1c0.5,0.3,1,0.5,1.6,0.5h7.7v27.6h-7.7c-0.6,0-1.1,0.1-1.6,0.5
	c-0.7,0.7-0.7,1.8-0.1,2.5c0,0,0.1,0.1,0.1,0.1c0.5,0.4,1,0.5,1.6,0.5H648c0.6,0,1.2-0.1,1.6-0.5c0.7-0.7,0.7-1.8,0.1-2.5
	c0,0-0.1-0.1-0.1-0.1c-0.5-0.3-1-0.5-1.6-0.5h-7.7v-27.6L648,486.3z"/>
<path class="st1" d="M689.5,508.9c-0.6,0-1.2,0.3-1.5,0.8c-1.3,1.6-2.8,2.9-4.6,3.9c-1.6,0.9-3.4,1.3-5.3,1.3
	c-3.3,0-6.4-1.4-8.7-3.8c-2.4-2.4-3.8-5.6-3.7-9v-4.2c0-1.5,0.2-2.9,0.8-4.3c0.7-1.7,1.7-3.4,2.9-4.8c0.8-0.9,1.7-1.5,2.7-2
	c1.6-0.8,3.3-1.2,5-1.2c2.6,0,5.2,0.8,7.2,2.4c1.3,0.9,2.2,2.3,2.4,3.9c0,0.5,0.2,1.1,0.5,1.5c0.3,0.3,0.8,0.5,1.2,0.5
	c0.5,0,1-0.2,1.3-0.6c0.4-0.5,0.5-1,0.5-1.6V485c0-0.6-0.1-1.1-0.5-1.6c-0.7-0.7-1.8-0.7-2.5-0.1c0,0-0.1,0.1-0.1,0.1
	c-0.4,0.5-0.5,1-0.5,1.6v0.5c-2.7-2.3-6.2-3.5-9.7-3.5c-2.6,0-5.2,0.7-7.5,2.1c-2.3,1.4-4.2,3.5-5.4,5.9c-1.3,2.3-1.9,4.9-2,7.5v4.9
	c0,1.6,0.2,3.2,0.7,4.8c0.7,1.7,1.6,3.3,2.8,4.7c1,1.3,2.1,2.5,3.4,3.6c1.1,0.8,2.3,1.4,3.6,1.9c1.8,0.7,3.6,1,5.5,1
	c2.1,0,4.2-0.5,6.2-1.4c2.1-1,4-2.4,5.5-4.1c0.7-0.6,1.2-1.5,1.4-2.4C691.1,509.6,690.4,508.8,689.5,508.9
	C689.5,508.8,689.4,508.8,689.5,508.9L689.5,508.9z"/>
<path class="st1" d="M726.3,502.9c-1-1.5-2.4-2.6-4-3.3c-2.2-0.8-4.5-1.4-6.9-1.7c-1.4-0.2-2.8-0.5-4.2-0.9
	c-0.8-0.3-1.6-0.6-2.3-1.1c-0.7-0.4-1.2-1-1.6-1.7c-0.4-0.7-0.6-1.5-0.6-2.3c0-1.7,0.8-3.3,2.2-4.4c3.5-2.5,8.2-2.5,11.7-0.1
	c1.3,0.9,2.1,2.3,2.3,3.9c0,0.5,0.2,1.1,0.5,1.5c0.7,0.7,1.8,0.7,2.5,0c0,0,0,0,0,0c0.3-0.5,0.5-1,0.5-1.6V485
	c0-0.6-0.1-1.1-0.5-1.6c-0.7-0.7-1.8-0.7-2.5-0.1c0,0-0.1,0.1-0.1,0.1c-0.3,0.4-0.4,0.8-0.5,1.2c-2.4-1.7-5.2-2.6-8.1-2.6
	c-3-0.1-6,0.9-8.4,2.9c-2,1.7-3.2,4.3-3.2,6.9c-0.1,2.4,0.9,4.8,2.8,6.3c1.8,1.4,4.8,2.5,8.9,3.2c1.9,0.3,3.8,0.7,5.6,1.3
	c1.1,0.4,2.1,1.2,2.8,2.1c0.6,0.9,0.9,2,0.9,3c0,1.9-0.9,3.7-2.4,4.9c-1.9,1.5-4.3,2.3-6.8,2.1c-2.4,0.1-4.9-0.6-6.9-2
	c-1.5-1-2.4-2.6-2.6-4.4c0-0.6-0.2-1.1-0.5-1.5c-0.7-0.7-1.8-0.7-2.5-0.1c0,0,0,0-0.1,0.1c-0.4,0.5-0.5,1-0.5,1.6v6.7
	c0,0.6,0.1,1.2,0.5,1.6c0.3,0.4,0.8,0.6,1.3,0.5c0.5,0,1-0.2,1.3-0.6c0.4-0.5,0.5-1,0.5-1.6v-0.1c2.7,2.2,6,3.3,9.5,3.2
	c3.3,0.2,6.6-0.9,9.2-3c2.2-1.8,3.5-4.6,3.5-7.5C727.8,506.2,727.3,504.4,726.3,502.9z"/>
<path class="st1" d="M723.5,485.8V485c0-0.4,0.1-0.9,0.3-1.2c0.5-0.5,1.2-0.5,1.7-0.1c0,0,0,0,0.1,0.1c0.3,0.4,0.4,0.8,0.3,1.2v6.1
	c0,0.4-0.1,0.9-0.3,1.2c-0.5,0.5-1.2,0.5-1.7,0c0,0,0,0,0,0c-0.3-0.3-0.4-0.7-0.4-1.1c-0.2-1.7-1.1-3.3-2.5-4.3
	c-3.8-2.6-8.7-2.6-12.5,0.1c-1.5,1.2-2.3,2.9-2.3,4.8c0,0.9,0.2,1.8,0.7,2.6c0.4,0.8,1,1.4,1.7,1.9c0.8,0.5,1.6,0.9,2.5,1.2
	c1.4,0.4,2.8,0.7,4.3,0.9c2.3,0.3,4.6,0.8,6.8,1.6c3.1,1.3,5.1,4.4,5,7.8c0,2.7-1.2,5.3-3.3,7c-2.2,1.9-5.2,2.9-8.9,2.9
	c-3.7,0.2-7.4-1.3-10-3.9v1.4c0,0.4-0.1,0.9-0.3,1.2c-0.2,0.2-0.5,0.4-0.9,0.4c-0.3,0-0.6-0.1-0.9-0.4c-0.3-0.4-0.4-0.8-0.3-1.2
	v-6.6c0-0.4,0.1-0.9,0.3-1.3c0.2-0.2,0.5-0.4,0.9-0.4c0.3,0,0.6,0.1,0.8,0.3c0.2,0.3,0.4,0.7,0.3,1.1c0.2,1.9,1.2,3.7,2.8,4.8
	c2.1,1.5,4.6,2.3,7.2,2.2c2.6,0.1,5.1-0.7,7.2-2.3c1.6-1.3,2.6-3.3,2.6-5.4c0-1.2-0.3-2.4-1-3.4c-0.8-1-1.8-1.9-3-2.3
	c-1.9-0.6-3.8-1.1-5.7-1.4c-4-0.7-6.9-1.7-8.6-3.1c-1.8-1.4-2.8-3.6-2.6-5.9c0-2.5,1.1-4.9,3-6.5c2.2-1.9,5.1-2.9,8-2.7
	C717.9,482.5,721.1,483.6,723.5,485.8z"/>
<text transform="matrix(1 0 0 1 238.39 517.87)" class="st0 st2 st3 st4">{</text>
<text transform="matrix(1 0 0 1 727.4 517.87)" class="st0 st2 st3 st4">}</text>
</svg>
