<svg id="Layer_1" data-name="Layer 1" xmlns="http://www.w3.org/2000/svg" viewBox="0 0 877 754.06"><defs><style>.cls-1{fill:#f2f2f2;}.cls-2{fill:#e0e0e0;}.cls-3{fill:#333;}.cls-4{fill:#fff;}.cls-5{fill:#022;}.cls-6{fill:#00ff93;}.cls-7{fill:#ff5e48;}.cls-8{fill:#99faff;}.cls-9{fill:#ffec5f;}</style></defs><title>screen</title><polygon class="cls-1" points="547.4 730.5 529.15 619.42 547.07 730.5 547.4 730.5"/><polygon class="cls-1" points="382.11 619.41 347.86 619.41 329.6 730.5 547.07 730.5 382.11 619.41"/><polygon class="cls-2" points="382.11 619.41 547.07 730.5 529.15 619.42 529.14 619.41 382.11 619.41"/><path class="cls-3" d="M390.6,853.44H371a7,7,0,0,0-7,7V870a7,7,0,0,0,7,7H626.32a7,7,0,0,0,7-7v-9.56a7,7,0,0,0-7-7H390.6Z" transform="translate(-61 -122.94)"/><path class="cls-3" d="M902.42,122.94H96.58c-19.65,0-35.58,15.54-35.58,34.7v550c0,19.16,15.93,34.7,35.58,34.7H902.42c19.65,0,35.58-15.54,35.58-34.7v-550C938,138.48,922.07,122.94,902.42,122.94Zm-365,580.74a5,5,0,0,1-5,5H468.31a5,5,0,0,1-5-5v-6.83a5,5,0,0,1,5-5h64.06a5,5,0,0,1,5,5Zm372-505V651.46H89.62V154.92H909.38Z" transform="translate(-61 -122.94)"/><path class="cls-4" d="M89.62,651.46H909.38V198.68H89.62Zm402.31-69.23a7,7,0,0,1-7,6.95H198.13a7,7,0,0,1-6.95-6.95v-9.5a7,7,0,0,1,6.95-7H485a7,7,0,0,1,7,7ZM417.86,351.81a7,7,0,0,1-6.95,6.95H198.13a7,7,0,0,1-6.95-6.95v-9.5a7,7,0,0,1,6.95-6.95H410.91a7,7,0,0,1,6.95,6.95Zm136.45,55.92a7,7,0,0,1,7,7v9.5a7,7,0,0,1-7,6.95H379.36a7,7,0,0,1-6.95-6.95v-9.5a7,7,0,0,1,6.95-7Zm-356.18,0H333.48a7,7,0,0,1,6.95,7v9.5a7,7,0,0,1-6.95,6.95H198.13a7,7,0,0,1-6.95-6.95v-9.5A7,7,0,0,1,198.13,407.73Zm0,78.94H365.46a7,7,0,0,1,7,6.95v9.5a7,7,0,0,1-7,6.95H198.13a7,7,0,0,1-6.95-6.95v-9.5A7,7,0,0,1,198.13,486.67Zm611.94,95.56a7,7,0,0,1-7,6.95H531.42a7,7,0,0,1-6.95-6.95v-9.5a7,7,0,0,1,6.95-7h271.7a7,7,0,0,1,7,7Zm0-79.11a7,7,0,0,1-7,6.95H417a7,7,0,0,1-7-6.95v-9.5a7,7,0,0,1,7-6.95H803.12a7,7,0,0,1,7,6.95ZM585.63,424.19v-9.5a7,7,0,0,1,7-7h210a7,7,0,0,1,7,7v9.5a7,7,0,0,1-7,6.95h-210A7,7,0,0,1,585.63,424.19Zm224.44-71.9a7,7,0,0,1-7,6.95h-348a7,7,0,0,1-6.95-6.95v-9.5a7,7,0,0,1,6.95-7h348a7,7,0,0,1,7,7ZM523.91,273a7,7,0,0,1,7-6.95H803.12a7,7,0,0,1,7,6.95v9.5a7,7,0,0,1-7,7H530.86a7,7,0,0,1-7-7Zm-333.22.16a7,7,0,0,1,7-6.95H485a7,7,0,0,1,7,6.95v9.5a7,7,0,0,1-7,6.95H197.65a7,7,0,0,1-7-6.95Z" transform="translate(-61 -122.94)"/><rect class="cls-4" x="402.31" y="568.91" width="74.07" height="16.83" rx="5"/><path class="cls-1" d="M89.62,198.68H909.38V154.92H89.62Zm68.17-28.61a7.58,7.58,0,1,1-7.58,7.57A7.57,7.57,0,0,1,157.79,170.07Zm-23.57,0a7.58,7.58,0,1,1-7.57,7.57A7.57,7.57,0,0,1,134.22,170.07Zm-23.56,0a7.58,7.58,0,1,1-7.58,7.57A7.57,7.57,0,0,1,110.66,170.07Z" transform="translate(-61 -122.94)"/><circle class="cls-5" cx="110.66" cy="177.64" r="7.57" transform="translate(-129.36 163.13) rotate(-89.28)"/><circle class="cls-5" cx="134.22" cy="177.64" r="7.57" transform="translate(-106.08 186.7) rotate(-89.28)"/><circle class="cls-5" cx="157.79" cy="177.64" r="7.57" transform="translate(-82.81 210.26) rotate(-89.28)"/><rect class="cls-6" x="462.91" y="143.07" width="286.16" height="23.4" rx="6.95"/><rect class="cls-7" x="387.16" y="212.9" width="361.91" height="23.4" rx="6.95"/><rect class="cls-6" x="130.18" y="284.79" width="149.25" height="23.4" rx="6.95"/><rect class="cls-8" x="130.18" y="212.42" width="226.68" height="23.4" rx="6.95"/><rect class="cls-9" x="311.41" y="284.79" width="188.85" height="23.4" rx="6.95"/><rect class="cls-8" x="524.63" y="284.79" width="223.88" height="23.4" rx="6.95"/><rect class="cls-7" x="129.69" y="143.23" width="301.23" height="23.4" rx="6.95"/><rect class="cls-7" x="130.18" y="363.72" width="181.24" height="23.4" rx="6.95"/><rect class="cls-6" x="349" y="363.72" width="400.06" height="23.4" rx="6.95"/><rect class="cls-8" x="463.47" y="442.83" width="285.6" height="23.4" rx="6.95"/><rect class="cls-9" x="130.18" y="442.83" width="300.75" height="23.4" rx="6.95"/></svg>